<?xml version="1.0" encoding="UTF-8" standalone="no"?>
<!-- Created with Inkscape (http://www.inkscape.org/) -->

<svg
   xmlns:dc="http://purl.org/dc/elements/1.1/"
   xmlns:cc="http://creativecommons.org/ns#"
   xmlns:rdf="http://www.w3.org/1999/02/22-rdf-syntax-ns#"
   xmlns:svg="http://www.w3.org/2000/svg"
   xmlns="http://www.w3.org/2000/svg"
   xmlns:sodipodi="http://sodipodi.sourceforge.net/DTD/sodipodi-0.dtd"
   xmlns:inkscape="http://www.inkscape.org/namespaces/inkscape"
   width="196.3125"
   height="53.030071"
   id="svg2"
   version="1.1"
   inkscape:version="0.48.4 r9939"
   sodipodi:docname="syncopto.svg">
  <defs
     id="defs4">
    <marker
       style="overflow:visible"
       id="Arrow1Lstart"
       refX="0"
       refY="0"
       orient="auto"
       inkscape:stockid="Arrow1Lstart">
      <path
         transform="matrix(0.8,0,0,0.8,10,0)"
         style="fill-rule:evenodd;stroke:#000000;stroke-width:1pt"
         d="M 0,0 5,-5 -12.5,0 5,5 0,0 z"
         id="path3847"
         inkscape:connector-curvature="0" />
    </marker>
    <marker
       style="overflow:visible"
       id="Arrow1Lend"
       refX="0"
       refY="0"
       orient="auto"
       inkscape:stockid="Arrow1Lend">
      <path
         transform="matrix(-0.8,0,0,-0.8,-10,0)"
         style="fill-rule:evenodd;stroke:#000000;stroke-width:1pt"
         d="M 0,0 5,-5 -12.5,0 5,5 0,0 z"
         id="path3850"
         inkscape:connector-curvature="0" />
    </marker>
    <marker
       style="overflow:visible"
       id="Arrow2Lstart"
       refX="0"
       refY="0"
       orient="auto"
       inkscape:stockid="Arrow2Lstart">
      <path
         transform="matrix(1.1,0,0,1.1,1.1,0)"
         d="M 8.7185878,4.0337352 -2.2072895,0.01601326 8.7185884,-4.0017078 c -1.7454984,2.3720609 -1.7354408,5.6174519 -6e-7,8.035443 z"
         style="fill-rule:evenodd;stroke-width:0.625;stroke-linejoin:round"
         id="path3865"
         inkscape:connector-curvature="0" />
    </marker>
    <marker
       style="overflow:visible"
       id="Arrow2Mstart"
       refX="0"
       refY="0"
       orient="auto"
       inkscape:stockid="Arrow2Mstart">
      <path
         transform="scale(0.6,0.6)"
         d="M 8.7185878,4.0337352 -2.2072895,0.01601326 8.7185884,-4.0017078 c -1.7454984,2.3720609 -1.7354408,5.6174519 -6e-7,8.035443 z"
         style="fill-rule:evenodd;stroke-width:0.625;stroke-linejoin:round"
         id="path3871"
         inkscape:connector-curvature="0" />
    </marker>
    <marker
       style="overflow:visible"
       id="Arrow1Send"
       refX="0"
       refY="0"
       orient="auto"
       inkscape:stockid="Arrow1Send">
      <path
         transform="matrix(-0.2,0,0,-0.2,-1.2,0)"
         style="fill-rule:evenodd;stroke:#000000;stroke-width:1pt"
         d="M 0,0 5,-5 -12.5,0 5,5 0,0 z"
         id="path3862"
         inkscape:connector-curvature="0" />
    </marker>
    <marker
       style="overflow:visible"
       id="Arrow2Lend"
       refX="0"
       refY="0"
       orient="auto"
       inkscape:stockid="Arrow2Lend">
      <path
         transform="matrix(-1.1,0,0,-1.1,-1.1,0)"
         d="M 8.7185878,4.0337352 -2.2072895,0.01601326 8.7185884,-4.0017078 c -1.7454984,2.3720609 -1.7354408,5.6174519 -6e-7,8.035443 z"
         style="fill-rule:evenodd;stroke-width:0.625;stroke-linejoin:round"
         id="path3868"
         inkscape:connector-curvature="0" />
    </marker>
  </defs>
  <sodipodi:namedview
     id="base"
     pagecolor="#ffffff"
     bordercolor="#666666"
     borderopacity="1.0"
     inkscape:pageopacity="0.0"
     inkscape:pageshadow="2"
     inkscape:zoom="5.6"
     inkscape:cx="106.38214"
     inkscape:cy="31.490564"
     inkscape:document-units="px"
     inkscape:current-layer="layer1"
     showgrid="false"
     inkscape:window-width="1920"
     inkscape:window-height="1056"
     inkscape:window-x="0"
     inkscape:window-y="24"
     inkscape:window-maximized="1"
     fit-margin-top="0"
     fit-margin-left="0"
     fit-margin-right="0"
     fit-margin-bottom="0" />
  <metadata
     id="metadata7">
    <rdf:RDF>
      <cc:Work
         rdf:about="">
        <dc:format>image/svg+xml</dc:format>
        <dc:type
           rdf:resource="http://purl.org/dc/dcmitype/StillImage" />
        <dc:title></dc:title>
      </cc:Work>
    </rdf:RDF>
  </metadata>
  <g
     inkscape:label="Layer 1"
     inkscape:groupmode="layer"
     id="layer1"
     transform="translate(-294.59375,-520.13287)">
    <path
       inkscape:connector-curvature="0"
       id="path2992"
       style="font-size:48px;font-style:normal;font-variant:normal;font-weight:normal;font-stretch:normal;text-align:start;line-height:125%;letter-spacing:0px;word-spacing:0px;writing-mode:lr-tb;text-anchor:start;fill:#000000;fill-opacity:1;stroke:none;font-family:Arial;-inkscape-font-specification:Arial"
       d="m 327.48503,572.70475 -1.98208,-3.1036 c 0.92188,0.25 3.21645,-0.45234 3.90396,-0.45234 0.93749,0 1.71093,-0.18625 2.27344,-0.49875 0.56249,-0.3125 1.02343,-0.75 1.38281,-1.3125 0.26562,-0.42188 0.6953,-1.46875 1.28906,-3.14062 0.0781,-0.23438 0.20312,-0.57813 0.375,-1.03125 l -9.44531,-24.9375 4.54687,0 5.17969,14.41406 c 0.67187,1.82813 1.27343,3.75001 1.80469,5.76562 0.48436,-1.93749 1.06249,-3.82811 1.73437,-5.67187 l 5.32032,-14.50781 4.21875,0 -9.46875,25.3125 c -1.01564,2.73437 -1.8047,4.61718 -2.36719,5.64843 -0.75001,1.39062 -1.60939,2.40625 -2.57813,3.04688 -0.96875,0.65624 -2.22656,0.89061 -3.57031,0.89062 -0.8125,-10e-6 -3.36719,-0.57032 -4.5,-0.49218"
       sodipodi:nodetypes="ccscccccccccccccccc" />
    <path
       inkscape:connector-curvature="0"
       id="path2994"
       style="font-size:48px;font-style:normal;font-variant:normal;font-weight:normal;font-stretch:normal;text-align:start;line-height:125%;letter-spacing:0px;word-spacing:0px;writing-mode:lr-tb;text-anchor:start;fill:#000000;fill-opacity:1;stroke:none;font-family:Arial;-inkscape-font-specification:Arial"
       d="m 351.67253,563.11881 0,-24.89062 3.79688,0 0,3.53906 c 1.82812,-2.73435 4.46874,-4.10154 7.92187,-4.10156 1.49999,2e-5 2.87499,0.27346 4.125,0.82031 1.26561,0.53127 2.21092,1.2344 2.83594,2.10937 0.62498,0.87503 1.06248,1.91409 1.3125,3.11719 0.15623,0.78127 0.23435,2.14846 0.23438,4.10156 l 0,15.30469 -4.21875,0 0,-15.14062 c -2e-5,-1.71874 -0.16409,-2.99999 -0.49219,-3.84375 -0.32814,-0.85936 -0.91408,-1.53905 -1.75781,-2.03907 -0.82814,-0.5156 -1.80471,-0.77341 -2.92969,-0.77343 -1.79689,2e-5 -3.35157,0.57033 -4.66406,1.71093 -1.29689,1.14065 -1.94532,3.30471 -1.94532,6.49219 l 0,13.59375 -4.21875,0" />
    <path
       inkscape:connector-curvature="0"
       id="path2996"
       style="font-size:48px;font-style:normal;font-variant:normal;font-weight:normal;font-stretch:normal;text-align:start;line-height:125%;letter-spacing:0px;word-spacing:0px;writing-mode:lr-tb;text-anchor:start;fill:#000000;fill-opacity:1;stroke:none;font-family:Arial;-inkscape-font-specification:Arial"
       d="m 394.63347,554.00162 4.14844,0.53907 c -0.45315,2.85938 -1.61721,5.10156 -3.49219,6.72656 -1.85939,1.60937 -4.14845,2.41406 -6.86719,2.41406 -3.40626,0 -6.14844,-1.10937 -8.22656,-3.32812 -2.0625,-2.23437 -3.09375,-5.42968 -3.09375,-9.58594 0,-2.68749 0.44531,-5.03905 1.33594,-7.05469 0.89062,-2.0156 2.24218,-3.52341 4.05469,-4.52344 1.82811,-1.0156 3.81249,-1.52341 5.95312,-1.52343 2.70311,2e-5 4.91405,0.68752 6.63281,2.0625 1.71873,1.35939 2.82029,3.29689 3.30469,5.8125 l -4.10156,0.63281 c -0.39064,-1.67186 -1.08596,-2.92967 -2.08594,-3.77344 -0.98439,-0.84373 -2.1797,-1.2656 -3.58594,-1.26562 -2.12501,2e-5 -3.85157,0.76564 -5.17968,2.29687 -1.32814,1.51564 -1.9922,3.92189 -1.99219,7.21875 -10e-6,3.34376 0.64062,5.77345 1.92187,7.28906 1.28124,1.51563 2.95312,2.27344 5.01563,2.27344 1.65623,0 3.03905,-0.50781 4.14844,-1.52344 1.10935,-1.01562 1.81248,-2.57811 2.10937,-4.6875" />
    <path
       inkscape:connector-curvature="0"
       id="path3002"
       style="font-size:48px;font-style:normal;font-variant:normal;font-weight:normal;font-stretch:normal;text-align:start;line-height:125%;letter-spacing:0px;word-spacing:0px;writing-mode:lr-tb;text-anchor:start;fill:#000000;fill-opacity:1;stroke:none;font-family:Arial;-inkscape-font-specification:Arial"
       d="m 465.03972,559.34537 0.60938,3.72657 c -1.18752,0.25 -2.25001,0.375 -3.1875,0.375 -1.53126,0 -2.71876,-0.24219 -3.5625,-0.72657 -0.84376,-0.48437 -1.43751,-1.11718 -1.78125,-1.89843 -0.34376,-0.79688 -0.51563,-2.46094 -0.51563,-4.99219 l 0,-23.72038 -3.09375,0 0,-3.781 3.09375,0 0,-5.6645 4.19531,-2.531 0,8.1955 4.24219,0 0,3.781 -4.24219,0 0,23.95475 c 0,1.20313 0.0703,1.97657 0.21094,2.32032 0.15624,0.34375 0.39843,0.61719 0.72656,0.82031 0.34374,0.20313 0.82812,0.30469 1.45313,0.30469 0.46874,0 1.08592,-0.0547 1.85156,-0.16407"
       sodipodi:nodetypes="ccsccsccccccccccsccsc" />
    <path
       style="fill:#000000;fill-opacity:1;stroke:none"
       d="m 308,528.1875 c -2.31251,3e-5 -4.39063,0.37504 -6.28125,1.15625 -1.89063,0.78129 -3.32813,1.9219 -4.3125,3.4375 -0.98438,1.50003 -1.5,3.14065 -1.5,4.875 0,1.57815 0.42188,3.00002 1.21875,4.28125 0.8125,1.26565 2.01562,2.32815 3.65625,3.1875 1.26562,0.67189 3.49999,1.39064 6.65625,2.15625 3.15624,0.75002 5.17186,1.29689 6.09375,1.65625 1.43748,0.54689 2.46873,1.21876 3.09375,2.03125 0.62498,0.79688 0.93748,1.73438 0.9375,2.8125 -2e-5,1.0625 -0.31253,2.06251 -0.96875,2.96875 -0.64065,0.89063 -1.64065,1.57813 -2.96875,2.09375 -1.32814,0.51563 -2.85939,0.78126 -4.59375,0.78125 -1.95314,10e-6 -3.68751,-0.32812 -5.25,-1 -1.56251,-0.68749 -2.71875,-1.59375 -3.46875,-2.6875 -0.73438,-1.10937 -1.20313,-2.49999 -1.40625,-4.21875 l -4.3125,0.375 c 0.0625,2.29688 0.6875,4.35938 1.875,6.1875 1.20312,1.8125 2.875,3.15626 4.96875,4.0625 2.10937,0.90625 4.70311,1.375 7.8125,1.375 2.4531,0 4.67186,-0.45312 6.625,-1.34375 1.96873,-0.90625 3.4531,-2.17187 4.5,-3.78125 1.04685,-1.62499 1.59372,-3.35937 1.59375,-5.1875 -3e-5,-1.84374 -0.48441,-3.46874 -1.4375,-4.875 -0.95316,-1.42186 -2.43753,-2.57811 -4.4375,-3.5 -1.37502,-0.62498 -3.92189,-1.35935 -7.625,-2.1875 -3.68751,-0.84372 -5.96876,-1.67186 -6.84375,-2.46875 -0.89063,-0.79685 -1.3125,-1.79685 -1.3125,-3.03125 0,-1.42185 0.625,-2.62497 1.875,-3.625 1.24092,-0.99578 3.1758,-1.51179 5.84375,-1.53125 l 182.875,0 0,-4 -182.875,0 c -0.0108,-3e-5 -0.0204,0 -0.0312,0 z"
       id="rect3014"
       inkscape:connector-curvature="0" />
    <path
       style="font-size:48px;font-style:normal;font-variant:normal;font-weight:normal;font-stretch:normal;text-align:start;line-height:125%;letter-spacing:0px;word-spacing:0px;writing-mode:lr-tb;text-anchor:start;fill:#000000;fill-opacity:1;stroke:none;font-family:Arial;-inkscape-font-specification:Arial"
       d="m 440.16611,537.66294 c -1.62501,2e-5 -3.01564,0.32815 -4.15625,0.96875 -1.14064,0.62503 -2.15625,1.57815 -3.0625,2.84375 l 0,-3.25 -3.84375,0 0,30.90625 4.21875,0 0,-8.59375 c 0.71875,0.90625 1.64062,1.65625 2.75,2.25 1.12499,0.59375 2.37498,0.90625 3.78125,0.90625 1.92186,0 3.76561,-0.54687 5.5,-1.625 1.74998,-1.09374 3.06247,-2.65624 3.96875,-4.6875 0.92185,-2.04686 1.40622,-4.35937 1.40625,-6.90625 -3e-5,-2.37499 -0.4219,-4.54686 -1.25,-6.53125 -0.82815,-1.99998 -2.06252,-3.53123 -3.6875,-4.625 -1.62501,-1.09372 -3.50001,-1.65623 -5.625,-1.65625 z m -0.40625,3.3125 c 1.81248,3e-5 3.39061,0.7969 4.6875,2.375 1.31248,1.57814 1.96873,3.95314 1.96875,7.125 -2e-5,3.32814 -0.68752,5.78126 -2.03125,7.375 -1.32814,1.57813 -2.93752,2.375 -4.8125,2.375 -1.84377,0 -3.39064,-0.78125 -4.6875,-2.3125 -1.29688,-1.53125 -1.96876,-3.89061 -1.96875,-7.09375 -1e-5,-3.20311 0.68749,-5.6406 2.0625,-7.3125 1.39061,-1.68747 2.98436,-2.53122 4.78125,-2.53125 z"
       id="path3000"
       inkscape:connector-curvature="0" />
    <path
       inkscape:connector-curvature="0"
       style="fill:#000000;fill-opacity:1;stroke:none"
       d="m 429.10361,564.91294 0,4.25 -4.03125,0 c 0.0683,2.21838 1.89006,4 4.125,4 2.27817,0 4.125,-1.84683 4.125,-4.125 0,-2.27817 -1.84683,-4.125 -4.125,-4.125 -0.0327,0 -0.0613,-7.6e-4 -0.0937,0 z"
       id="path3788" />
    <path
       style="fill:#000000;fill-opacity:1;stroke:none"
       d="m 294.65625,569.15625 0,4 134.46875,0 0,-4 z"
       id="rect3792"
       inkscape:connector-curvature="0"
       sodipodi:nodetypes="ccccc" />
    <g
       id="g3871">
      <path
         id="path3004"
         d="m 482.3125,538 0,3.875 c 0.78014,0.39556 1.48876,0.95834 2.125,1.6875 1.40623,1.57814 2.12498,3.89064 2.125,6.96875 -2e-5,3.26564 -0.70315,5.6875 -2.09375,7.28125 -0.64427,0.73837 -1.36107,1.32246 -2.15625,1.71875 l 0,3.78125 c 1.02147,-0.25381 2.00538,-0.63841 2.9375,-1.15625 1.84373,-1.01562 3.23435,-2.42187 4.1875,-4.25 0.96872,-1.84374 1.46873,-4.39062 1.46875,-7.59375 -2e-5,-3.95311 -1.1094,-7.04686 -3.28125,-9.28125 -1.48266,-1.53597 -3.24733,-2.54381 -5.3125,-3.03125 z m -6.25,0.0312 c -1.74168,0.42669 -3.29416,1.23308 -4.65625,2.40625 -2.5625,2.21877 -3.84375,5.64064 -3.84375,10.25 0,4.20313 1.07812,7.42188 3.21875,9.65625 1.45655,1.50933 3.21865,2.47898 5.28125,2.96875 l 0,-3.84375 c -0.75835,-0.38951 -1.4456,-0.92491 -2.0625,-1.625 -1.39064,-1.59374 -2.09376,-3.96874 -2.09375,-7.15625 -10e-6,-3.18749 0.70311,-5.57811 2.09375,-7.15625 0.6169,-0.70007 1.30415,-1.23549 2.0625,-1.625 l 0,-3.875 z"
         style="font-size:48px;font-style:normal;font-variant:normal;font-weight:normal;font-stretch:normal;text-align:start;line-height:125%;letter-spacing:0px;word-spacing:0px;writing-mode:lr-tb;text-anchor:start;fill:#000000;fill-opacity:1;stroke:none;font-family:Arial;-inkscape-font-specification:Arial"
         inkscape:connector-curvature="0" />
      <path
         transform="translate(2.7205716,0.12626907)"
         inkscape:transform-center-y="0.015783634"
         inkscape:transform-center-x="-0.95702444"
         d="m 474.48759,540.02545 5.2086,-3.00718 0,6.01437 z"
         inkscape:randomized="0"
         inkscape:rounded="0"
         inkscape:flatsided="true"
         sodipodi:arg2="4.1887902"
         sodipodi:arg1="3.1415927"
         sodipodi:r2="1.9414511"
         sodipodi:r1="3.4723995"
         sodipodi:cy="540.02545"
         sodipodi:cx="477.95999"
         sodipodi:sides="3"
         id="path3866"
         style="fill:#000000;fill-opacity:1;stroke:none"
         sodipodi:type="star" />
      <path
         sodipodi:type="star"
         style="fill:#000000;fill-opacity:1;stroke:none"
         id="path3869"
         sodipodi:sides="3"
         sodipodi:cx="477.95999"
         sodipodi:cy="540.02545"
         sodipodi:r1="3.4723995"
         sodipodi:r2="1.9414511"
         sodipodi:arg1="3.1415927"
         sodipodi:arg2="4.1887902"
         inkscape:flatsided="true"
         inkscape:rounded="0"
         inkscape:randomized="0"
         d="m 474.48759,540.02545 5.2086,-3.00718 0,6.01437 z"
         inkscape:transform-center-x="0.95702067"
         inkscape:transform-center-y="-0.015747847"
         transform="matrix(-1,0,0,-1,955.61106,1101.4535)" />
    </g>
    <g
       id="g3876"
       transform="translate(-64.741072,0)">
      <path
         style="font-size:48px;font-style:normal;font-variant:normal;font-weight:normal;font-stretch:normal;text-align:start;line-height:125%;letter-spacing:0px;word-spacing:0px;writing-mode:lr-tb;text-anchor:start;fill:#000000;fill-opacity:1;stroke:none;font-family:Arial;-inkscape-font-specification:Arial"
         d="m 482.3125,538 0,3.875 c 0.78014,0.39556 1.48876,0.95834 2.125,1.6875 1.40623,1.57814 2.12498,3.89064 2.125,6.96875 -2e-5,3.26564 -0.70315,5.6875 -2.09375,7.28125 -0.64427,0.73837 -1.36107,1.32246 -2.15625,1.71875 l 0,3.78125 c 1.02147,-0.25381 2.00538,-0.63841 2.9375,-1.15625 1.84373,-1.01562 3.23435,-2.42187 4.1875,-4.25 0.96872,-1.84374 1.46873,-4.39062 1.46875,-7.59375 -2e-5,-3.95311 -1.1094,-7.04686 -3.28125,-9.28125 -1.48266,-1.53597 -3.24733,-2.54381 -5.3125,-3.03125 z m -6.25,0.0312 c -1.74168,0.42669 -3.29416,1.23308 -4.65625,2.40625 -2.5625,2.21877 -3.84375,5.64064 -3.84375,10.25 0,4.20313 1.07812,7.42188 3.21875,9.65625 1.45655,1.50933 3.21865,2.47898 5.28125,2.96875 l 0,-3.84375 c -0.75835,-0.38951 -1.4456,-0.92491 -2.0625,-1.625 -1.39064,-1.59374 -2.09376,-3.96874 -2.09375,-7.15625 -10e-6,-3.18749 0.70311,-5.57811 2.09375,-7.15625 0.6169,-0.70007 1.30415,-1.23549 2.0625,-1.625 l 0,-3.875 z"
         id="path3878"
         inkscape:connector-curvature="0" />
      <path
         sodipodi:type="star"
         style="fill:#000000;fill-opacity:1;stroke:none"
         id="path3880"
         sodipodi:sides="3"
         sodipodi:cx="477.95999"
         sodipodi:cy="540.02545"
         sodipodi:r1="3.4723995"
         sodipodi:r2="1.9414511"
         sodipodi:arg1="3.1415927"
         sodipodi:arg2="4.1887902"
         inkscape:flatsided="true"
         inkscape:rounded="0"
         inkscape:randomized="0"
         d="m 474.48759,540.02545 5.2086,-3.00718 0,6.01437 z"
         inkscape:transform-center-x="-0.95702444"
         inkscape:transform-center-y="0.015783634"
         transform="translate(2.7205716,0.12626907)" />
      <path
         transform="matrix(-1,0,0,-1,955.61106,1101.4535)"
         inkscape:transform-center-y="-0.015747847"
         inkscape:transform-center-x="0.95702067"
         d="m 474.48759,540.02545 5.2086,-3.00718 0,6.01437 z"
         inkscape:randomized="0"
         inkscape:rounded="0"
         inkscape:flatsided="true"
         sodipodi:arg2="4.1887902"
         sodipodi:arg1="3.1415927"
         sodipodi:r2="1.9414511"
         sodipodi:r1="3.4723995"
         sodipodi:cy="540.02545"
         sodipodi:cx="477.95999"
         sodipodi:sides="3"
         id="path3882"
         style="fill:#000000;fill-opacity:1;stroke:none"
         sodipodi:type="star" />
    </g>
  </g>
</svg>
