<?xml version="1.0" encoding="UTF-8" standalone="no"?>
<!-- Created with Inkscape (http://www.inkscape.org/) -->

<svg
   xmlns:dc="http://purl.org/dc/elements/1.1/"
   xmlns:cc="http://creativecommons.org/ns#"
   xmlns:rdf="http://www.w3.org/1999/02/22-rdf-syntax-ns#"
   xmlns:svg="http://www.w3.org/2000/svg"
   xmlns="http://www.w3.org/2000/svg"
   xmlns:sodipodi="http://sodipodi.sourceforge.net/DTD/sodipodi-0.dtd"
   xmlns:inkscape="http://www.inkscape.org/namespaces/inkscape"
   width="74.585678mm"
   height="74.585678mm"
   viewBox="0 0 264.27996 264.27996"
   id="svg2"
   version="1.1"
   inkscape:version="0.91 r13725"
   sodipodi:docname="sync.svg"
   inkscape:export-filename="C:\data\projects\syncopto\assets\sync\sync.png"
   inkscape:export-xdpi="851.36987"
   inkscape:export-ydpi="851.36987">
  <defs
     id="defs4" />
  <sodipodi:namedview
     id="base"
     pagecolor="#ffffff"
     bordercolor="#666666"
     borderopacity="1.0"
     inkscape:pageopacity="0.0"
     inkscape:pageshadow="2"
     inkscape:zoom="1.4487847"
     inkscape:cx="171.83731"
     inkscape:cy="96.623826"
     inkscape:document-units="px"
     inkscape:current-layer="layer1"
     showgrid="false"
     inkscape:window-width="1280"
     inkscape:window-height="660"
     inkscape:window-x="-8"
     inkscape:window-y="-8"
     inkscape:window-maximized="1"
     fit-margin-top="0"
     fit-margin-left="0"
     fit-margin-right="0"
     fit-margin-bottom="0" />
  <metadata
     id="metadata7">
    <rdf:RDF>
      <cc:Work
         rdf:about="">
        <dc:format>image/svg+xml</dc:format>
        <dc:type
           rdf:resource="http://purl.org/dc/dcmitype/StillImage" />
        <dc:title></dc:title>
      </cc:Work>
    </rdf:RDF>
  </metadata>
  <g
     inkscape:label="Layer 1"
     inkscape:groupmode="layer"
     id="layer1"
     transform="translate(-63.180523,-182.10985)">
    <path
       style="fill:#00ff00;fill-opacity:1;stroke:#000000;stroke-width:1;stroke-miterlimit:4;stroke-dasharray:none;stroke-opacity:1"
       d="M 158.85352 1.140625 L 135.1582 14.820312 L 111.46484 28.5 L 135.1582 42.181641 L 158.85352 55.861328 L 158.85352 40.363281 A 94.175095 94.175095 0 0 1 225.28125 130.25195 A 94.175095 94.175095 0 0 1 157.78711 220.50195 L 157.78711 244.18945 A 117.14286 117.14286 0 0 0 248.24805 130.25195 A 117.14286 117.14286 0 0 0 158.85352 16.605469 L 158.85352 1.140625 z M 104.42383 16.316406 A 117.14286 117.14286 0 0 0 13.962891 130.25195 A 117.14286 117.14286 0 0 0 102.64844 243.71875 L 102.64844 261.06836 L 126.3418 247.38867 L 150.03711 233.70898 L 126.3418 220.0293 L 102.64844 206.34766 L 102.64844 219.89062 A 94.175095 94.175095 0 0 1 36.931641 130.25195 A 94.175095 94.175095 0 0 1 104.42383 40.005859 L 104.42383 16.316406 z "
       transform="translate(63.180523,182.10985)"
       id="path4136" />
  </g>
</svg>
